PathFileType  4	(X/Y/Z) C:\Users\antoi\Documents\MyRepositories\mobilecap\ResultsAnalysis
DataRate	CameraRate	NumFrames	NumMarkers	Units	OrigDataRate	OrigDataStartFrame	OrigNumFrames
100.0	100.0	4	51	mm	100.0	87	138
Frame#	Time	r_knee			r_shank_antsup			r_ankle			r_calc			r_5meta			r_toe			L_knee			L_shank_antsup			L_ankle			L_calc			L_5meta			L_toe			r_sh2			r_sh3			r_sh4			L_sh2			L_sh3			r_thigh1			r_thigh2			r_thigh3			r_thigh4			r_thigh5			L_thigh1			L_thigh2			L_thigh3			L_thigh4			r.ASIS			r.PSIS			L.ASIS			L.PSIS			C7			R_Shoulder			L_Shoulder			R_Sternum			L_Sternum			R_humerus			R_elbow_med			R_elbow_lat			R_forearm			R_wrist_radius			R_wrist_ulna			L_humerus			L_elbow_med			L_elbow_lat			L_forearm			L_wrist_radius			L_wrist_ulna			R_HJC			L_HJC			R_HJC_reg			L_HJC_reg			
		X1	Y1	Z1	X2	Y2	Z2	X3	Y3	Z3	X4	Y4	Z4	X5	Y5	Z5	X6	Y6	Z6	X7	Y7	Z7	X8	Y8	Z8	X9	Y9	Z9	X10	Y10	Z10	X11	Y11	Z11	X12	Y12	Z12	X13	Y13	Z13	X14	Y14	Z14	X15	Y15	Z15	X16	Y16	Z16	X17	Y17	Z17	X18	Y18	Z18	X19	Y19	Z19	X20	Y20	Z20	X21	Y21	Z21	X22	Y22	Z22	X23	Y23	Z23	X24	Y24	Z24	X25	Y25	Z25	X26	Y26	Z26	X27	Y27	Z27	X28	Y28	Z28	X29	Y29	Z29	X30	Y30	Z30	X31	Y31	Z31	X32	Y32	Z32	X33	Y33	Z33	X34	Y34	Z34	X35	Y35	Z35	X36	Y36	Z36	X37	Y37	Z37	X38	Y38	Z38	X39	Y39	Z39	X40	Y40	Z40	X41	Y41	Z41	X42	Y42	Z42	X43	Y43	Z43	X44	Y44	Z44	X45	Y45	Z45	X46	Y46	Z46	X47	Y47	Z47	X48	Y48	Z48	X49	Y49	Z49	X50	Y50	Z50	X51	Y51	Z51	

87	0.86000000	1058.87625	574.18559	-80.75291	1024.15342	451.43287	-104.11412	742.71952	267.54667	-161.07319	688.33605	295.86195	-223.37550	765.77587	112.88308	-120.20834	824.69151	108.38840	-177.04781	913.88575	537.87941	-431.06672	951.30176	429.91431	-405.56394	837.65222	95.80921	-382.66915	771.49800	69.96238	-334.79576	978.48939	34.39417	-404.34148	1007.49592	57.05820	-334.22239	955.79149	366.10639	-136.97791	963.51087	483.17497	-67.29330	894.94970	390.88725	-84.07953	871.17291	430.39237	-450.50581	885.87049	309.68934	-454.00797	1071.05507	823.40034	-100.50194	1116.32531	721.14407	-104.90233	1088.67059	682.29952	-55.52143	982.59025	782.10221	-41.64795	1034.68111	677.68003	-51.08790	980.01911	793.75725	-462.42761	996.00588	657.90229	-444.06367	873.01917	775.34783	-488.09520	887.95160	639.35245	-461.51070	961.97651	1050.16190	-138.71256	756.81748	1077.86690	-226.38748	966.89859	1049.76586	-403.47471	757.76795	1081.16194	-324.25766	842.91019	1580.95203	-291.22275	903.70785	1512.97397	-100.72214	920.55046	1520.87963	-463.35419	978.41069	1496.60302	-258.71219	977.36067	1492.69883	-305.75831	898.24106	1344.19175	-26.00880	815.15173	1126.57454	-75.50008	828.19927	1149.73381	3.99089	924.17555	1003.45867	21.00387	957.12363	885.65839	32.80153	924.03409	876.99811	59.12974	941.25507	1349.30884	-535.25896	871.81063	1132.81185	-497.21840	914.06250	1148.89174	-565.25553	1024.64293	1028.96015	-523.77708	1074.38743	921.45916	-535.76936	1047.55372	912.12128	-574.58465	882.30982	968.04345	-175.76790	888.98736	958.24423	-388.81806	893.05255	964.30901	-179.91967	894.74644	970.19254	-354.60315	
88	0.87000000	1078.87800	578.79638	-81.61860	1048.24045	454.22795	-104.94523	774.12789	258.75839	-161.10978	718.15808	284.12762	-223.37097	805.37256	105.78609	-119.94185	864.43670	104.25271	-176.74767	916.95323	538.39295	-430.79163	953.32523	430.12847	-405.47435	837.92774	96.52304	-382.29439	771.91528	70.14947	-334.47091	978.51184	34.47255	-404.23229	1007.65819	56.95083	-334.13988	983.14607	366.18253	-137.82431	986.33100	483.23667	-67.56032	921.88939	388.22062	-84.44668	873.08133	431.10851	-450.14457	887.01319	310.31935	-453.76242	1086.44727	828.41251	-101.88971	1133.34466	727.16971	-106.51384	1107.09408	688.09948	-56.56110	999.48707	785.78157	-41.61331	1053.39461	682.01944	-51.50956	988.04863	793.25344	-461.83551	1001.72411	657.28916	-443.43466	880.80585	776.70995	-487.80416	893.56401	640.31937	-461.20966	973.92359	1051.87304	-139.24648	768.79149	1079.20500	-226.52614	977.96261	1050.06357	-403.81189	769.75158	1082.43075	-324.43660	855.33906	1582.12379	-291.31047	914.90427	1514.10949	-100.58022	933.62114	1522.45194	-462.88200	990.47897	1497.74056	-258.09745	989.71956	1493.85892	-305.10319	907.70113	1345.50318	-25.53142	824.02712	1128.29118	-75.71576	836.42865	1151.41992	3.90658	931.22271	1004.55657	22.16787	963.40339	886.57265	34.43658	929.99353	878.16409	60.35771	956.33390	1351.76492	-535.18128	889.72186	1134.21619	-497.39370	931.93358	1150.88163	-565.27726	1044.95974	1033.56273	-522.48358	1097.26975	927.22903	-533.59582	1070.66433	917.08249	-572.53826	894.11041	969.62418	-175.65192	900.25577	958.79089	-388.67592	904.77768	965.33636	-180.37438	906.48627	971.08815	-354.91355	
89	0.88000000	1097.99759	583.01164	-82.58410	1071.67914	456.89882	-105.56050	806.10711	249.13136	-161.14713	748.70448	271.20887	-223.40320	845.86424	98.38266	-119.35148	904.95480	99.93589	-176.09454	920.01881	538.89798	-430.52468	955.34016	430.36450	-405.39243	838.20743	97.26947	-381.93327	772.32428	70.46152	-334.14577	978.53757	34.53686	-404.12637	1007.81984	56.81557	-334.05766	1010.30540	365.99248	-138.39356	1008.45519	483.05213	-67.99887	948.42509	385.23544	-84.81676	875.00646	431.84998	-449.80144	888.15984	310.99615	-453.53702	1101.48346	832.88577	-103.37098	1149.80149	732.55802	-108.21958	1124.93047	693.48204	-57.74275	1016.12824	789.20685	-41.63835	1071.28082	685.82396	-52.11331	996.02295	792.68035	-461.20519	1007.37514	656.65264	-442.76777	888.58082	777.97906	-487.46724	899.19228	641.21666	-460.90522	985.83033	1053.26170	-139.71031	780.74372	1080.32057	-226.59049	989.39804	1050.30004	-404.21162	781.70399	1083.52075	-324.53487	867.79755	1583.09363	-291.31155	926.16003	1514.93696	-100.37414	946.76335	1523.79189	-462.34177	1002.57701	1498.61283	-257.41609	1002.09494	1494.76560	-304.38278	917.23396	1346.51900	-24.99239	832.92098	1129.70850	-75.72059	844.71720	1152.84707	3.98716	938.38944	1005.43232	23.45592	969.82735	887.26363	36.19510	936.18704	879.10600	61.69964	971.41737	1353.98433	-535.02331	907.36449	1135.47730	-497.70332	949.54522	1152.71328	-565.39830	1064.99623	1038.07995	-521.22976	1119.90927	932.96033	-531.39070	1093.57821	921.99569	-570.45081	905.94945	970.91392	-175.58553	911.67659	959.26838	-388.58468	916.60162	966.11167	-180.80872	918.30919	971.81388	-355.29890	
90	0.89000000	1116.22365	586.78231	-83.64876	1094.38993	459.40962	-105.95737	838.69056	238.75906	-161.13318	780.08642	257.21778	-223.45768	887.16974	90.80416	-118.41273	946.17078	95.57393	-175.02674	923.14563	539.39605	-430.27157	957.39048	430.61995	-405.31816	838.50462	98.04185	-381.60030	772.68021	70.95221	-333.84192	978.57002	34.58224	-404.02995	1007.99829	56.66545	-333.98217	1037.24005	365.56528	-138.63479	1029.80165	482.61262	-68.64352	974.51108	381.98228	-85.17546	876.98379	432.61600	-449.47994	889.34491	311.72303	-453.33069	1116.15810	836.77899	-104.90441	1165.70258	737.25391	-109.99457	1142.16828	698.32767	-59.05156	1032.47135	792.32351	-41.73248	1088.43498	689.15825	-52.83420	1003.95536	792.03998	-460.54426	1012.97036	655.98560	-442.08522	896.31759	779.15962	-487.07120	904.82238	642.05913	-460.59850	997.74584	1054.33511	-140.08739	792.65352	1081.22796	-226.54928	1001.15778	1050.44961	-404.63458	793.62957	1084.41331	-324.53499	880.28751	1583.85396	-291.22589	937.47112	1515.44801	-100.09939	959.99721	1524.90802	-461.74066	1014.71459	1499.21717	-256.66743	1014.47634	1495.41742	-303.60124	926.87565	1347.22024	-24.40412	841.85396	1130.81106	-75.53242	853.10226	1153.99367	4.21800	945.70854	1006.05899	24.84210	976.39579	887.69080	38.06107	942.60066	879.79434	63.13565	986.49615	1355.94300	-534.75908	924.72128	1136.55382	-498.16270	966.90575	1154.36720	-565.61541	1084.73284	1042.46782	-520.00110	1142.27427	938.61485	-529.15239	1116.28660	926.82419	-568.32006	917.83411	971.92296	-175.52850	923.22578	959.65011	-388.50395	928.48885	966.67476	-181.19118	930.22431	972.34914	-355.71337	
